<svg width="31" height="30" viewBox="0 0 31 30" fill="none" xmlns="http://www.w3.org/2000/svg">
<path d="M8.62342 25.7812C8.26367 25.7805 7.91028 25.6862 7.59803 25.5076C6.8949 25.1091 6.45779 24.3357 6.45779 23.496V6.50384C6.45779 5.66185 6.8949 4.89076 7.59803 4.49232C7.91772 4.30859 8.28089 4.21411 8.64958 4.21875C9.01828 4.22338 9.37896 4.32697 9.69393 4.51869L24.2164 13.2117C24.519 13.4014 24.7686 13.665 24.9415 13.9776C25.1145 14.2901 25.2052 14.6415 25.2052 14.9988C25.2052 15.356 25.1145 15.7074 24.9415 16.02C24.7686 16.3326 24.519 16.5961 24.2164 16.7859L9.69158 25.4812C9.36926 25.6761 9.00007 25.7797 8.62342 25.7812V25.7812Z" fill="#E1E1E6"/>
</svg>
