<svg width="31" height="30" viewBox="0 0 31 30" fill="none" xmlns="http://www.w3.org/2000/svg">
<path d="M28.446 13.4452L17.3794 6.82406C17.1056 6.65748 16.7921 6.56747 16.4716 6.56345C16.1512 6.55943 15.8355 6.64154 15.5577 6.80121C15.2562 6.97678 15.0065 7.22901 14.834 7.53229C14.6616 7.83556 14.5724 8.17909 14.5756 8.52796V13.1598L3.98659 6.8223C3.71281 6.65572 3.39932 6.56571 3.07887 6.56169C2.75842 6.55767 2.44278 6.63979 2.16491 6.79945C1.86341 6.97502 1.61374 7.22725 1.44126 7.53053C1.26878 7.83381 1.17964 8.17733 1.18288 8.52621V21.4754C1.17953 21.8244 1.26863 22.168 1.44111 22.4714C1.6136 22.7748 1.86332 23.0272 2.16491 23.2028C2.44278 23.3624 2.75842 23.4445 3.07887 23.4405C3.39932 23.4365 3.71281 23.3465 3.98659 23.1799L14.5756 16.8395V21.4731C14.5719 21.8225 14.6608 22.1666 14.8333 22.4704C15.0058 22.7743 15.2557 23.027 15.5577 23.2028C15.8355 23.3624 16.1512 23.4445 16.4716 23.4405C16.7921 23.4365 17.1056 23.3465 17.3794 23.1799L28.446 16.5588C28.709 16.394 28.9259 16.1651 29.0763 15.8935C29.2266 15.6219 29.3055 15.3165 29.3055 15.0061C29.3055 14.6956 29.2266 14.3903 29.0763 14.1187C28.9259 13.8471 28.709 13.6182 28.446 13.4534V13.4452Z" fill="#E1E1E6"/>
</svg>
