<svg width="31" height="30" viewBox="0 0 31 30" fill="none" xmlns="http://www.w3.org/2000/svg">
<path d="M2.21204 13.4452L13.2786 6.82406C13.5524 6.65748 13.8659 6.56747 14.1864 6.56345C14.5068 6.55943 14.8225 6.64154 15.1003 6.80121C15.4018 6.97678 15.6515 7.22901 15.824 7.53229C15.9964 7.83556 16.0856 8.17909 16.0824 8.52796V13.1598L26.6714 6.8223C26.9452 6.65572 27.2587 6.56571 27.5791 6.56169C27.8996 6.55767 28.2152 6.63979 28.4931 6.79945C28.7946 6.97502 29.0443 7.22725 29.2167 7.53053C29.3892 7.83381 29.4784 8.17733 29.4751 8.52621V21.4754C29.4785 21.8244 29.3895 22.1681 29.217 22.4715C29.0445 22.7749 28.7947 23.0272 28.4931 23.2028C28.2152 23.3624 27.8996 23.4445 27.5791 23.4405C27.2587 23.4365 26.9452 23.3465 26.6714 23.1799L16.0824 16.8395V21.4731C16.0862 21.8225 15.9973 22.1666 15.8248 22.4705C15.6523 22.7743 15.4023 23.027 15.1003 23.2028C14.8225 23.3624 14.5068 23.4445 14.1864 23.4405C13.8659 23.4365 13.5524 23.3465 13.2786 23.1799L2.21204 16.5588C1.94896 16.394 1.73206 16.1651 1.58171 15.8935C1.43136 15.6219 1.35248 15.3165 1.35248 15.0061C1.35248 14.6956 1.43136 14.3903 1.58171 14.1187C1.73206 13.8471 1.94896 13.6182 2.21204 13.4534V13.4452Z" fill="#E1E1E6"/>
</svg>
